<?xml version="1.0"?>
<svg xmlns:rdf="http://www.w3.org/1999/02/22-rdf-syntax-ns#" xmlns="http://www.w3.org/2000/svg" xmlns:cc="http://web.resource.org/cc/" xmlns:xlink="http://www.w3.org/1999/xlink" xmlns:dc="http://purl.org/dc/elements/1.1/" xmlns:svg="http://www.w3.org/2000/svg" id="Layer_1" version="1.1" xml:space="preserve" viewBox="0 0 424 439" enable-background="new 0 0 424 439" y="0px" x="0px">
<path d="m131.63 49.43h0.166c16.898 11.73 33.865 23.37 50.8 35.055-4.101 20.255-8.19 40.509-12.31 60.759-3.261-7.939-6.416-15.924-9.666-23.869-16.234 6.943-30.779 17.785-42.109 31.324-11.965 14.23-20.315 31.476-24.03 49.69-5.565 26.825-0.995 55.61 12.774 79.31-13.984 8.087-27.969 16.166-41.949 24.25-13.42-23.09-20.855-49.573-21.59-76.26v-9.074c0.83-29.686 9.979-59.101 26.34-83.896 17.47-26.72 43.04-48.035 72.475-60.385-3.63-8.96-7.29-17.92-10.9-26.895z" fill="#3AB54A"/>
<path d="m204.97 63.61c19.604-0.02 39.22 3.516 57.535 10.54 20.329 7.78 39.095 19.65 54.765 34.771 23.74 22.825 40.064 53.145 46.26 85.475 3.235 16.686 3.813 33.87 1.735 50.73 9.523 1.358 19.063 2.625 28.595 3.97-0.879 0.721-1.959 1.11-2.97 1.602-17.556 8.38-35.114 16.75-52.67 25.136-15.5-13.666-31.005-27.315-46.489-40.99 8.51 1.154 17.024 2.313 25.529 3.535 2.475-20.67-0.972-41.995-9.73-60.875-8.51-18.49-22.164-34.561-39.034-45.94-18.573-12.64-40.983-19.575-63.46-19.444 0.02-16.175-0.12-32.34-0.07-48.51z" fill="#076839"/>
<path d="m272.52 315.25c12.211-9.03 22.535-20.575 30.2-33.688 13.955 8.19 27.97 16.275 41.875 24.546-2.396 3.949-4.847 7.869-7.524 11.636-17.561 25.034-42.53 44.676-70.811 56.229-18.119 7.46-37.619 11.472-57.2 11.955h-9.075c-16.239-0.729-32.415-3.604-47.771-9.005-16.25-5.655-31.584-13.92-45.234-24.398-6.055 7.584-12.005 15.254-18.03 22.858 1.761-20.6 3.5-41.205 5.312-61.805 19.604-6.427 39.185-12.932 58.795-19.355-5.271 6.791-10.665 13.484-15.94 20.271 22.575 17.211 51.8 25.405 80.03 22.358 19.93-2.08 39.25-9.66 55.35-21.62z" fill="#8CC640"/>
<path d="m163.24 152.98c10.678-5.833 22.692-9.159 34.842-9.715-0.004 26.418 0.008 52.834-0.008 79.25-18.619 18.607-37.228 37.228-55.844 55.838-0.129 0.224-0.35 0.119-0.456-0.061-9.226-10.196-15.81-22.784-18.825-36.207-1.371-5.955-2.003-12.066-2.033-18.172 0.06-6.479 0.806-12.965 2.377-19.257 3-12.239 8.961-23.73 17.185-33.275 6.39-7.44 14.14-13.71 22.76-18.4z" fill="#8CC640"/>
<path d="m211.86 143.52c0.02-0.074 0.057-0.223 0.075-0.297 6.59 0.377 13.153 1.43 19.473 3.354 13.056 3.908 25.058 11.222 34.563 20.979 8.635 8.825 15.229 19.647 19.04 31.394 5.636 17.144 5.282 36.172-0.981 53.095-2.676 7.269-6.414 14.14-11.041 20.351-1.612 2.108-3.248 4.218-5.103 6.119-18.585-18.58-37.164-37.166-55.751-55.744-0.219-0.189-0.34-0.479-0.289-0.768 0.158-2.072-0.072-4.15 0.055-6.22-0.004-3.001-0.047-5.994-0.004-8.995-0.057-3.164 0.07-6.331-0.051-9.493 0.115-3.634-0.016-7.271 0.058-10.907-0.121-3.166 0.043-6.333-0.022-9.499-0.094-1.155-0.021-2.312 0.018-3.464-0.096-0.862-0.041-1.727 0.003-2.589-0.039-1.786 0.022-3.57-0.037-5.356 0.05-0.854 0.058-1.714-0.009-2.57-0.084-1.213 0.134-2.424 0.004-3.639 0.088-1.438-0.102-2.877 0.012-4.316 0.107-0.982-0.104-1.965 0.024-2.945 0-2.82 0.02-5.65-0.03-8.48z" fill="#3AB54A"/>
<path d="m147.4 284.92c16.892-16.881 33.765-33.779 50.664-50.652 0.031 18.953 0.004 37.903 0.015 56.855-0.01 4.941 0.019 9.887-0.015 14.829-10.623-0.479-21.147-3.079-30.757-7.64-5.604-2.646-10.896-5.947-15.747-9.804-1.41-1.16-2.86-2.29-4.15-3.59z" fill="#1F3F1C"/>
<path d="m211.93 234.29c16.476 16.543 33.017 33.025 49.52 49.547 0.353 0.376 0.772 0.696 1.054 1.137-10.209 9.283-22.813 15.935-36.275 18.993-4.703 1.082-9.502 1.729-14.321 1.958-0.036-3.732-0.032-7.476-0.017-11.207-0.153-1.15 0.087-2.303-0.037-3.451-0.061-0.752 0.027-1.498 0.044-2.244-0.052-4.946 0.022-9.895-0.017-14.844-0.015-6.223 0.065-12.461-0.037-18.685 0.139-1.896-0.041-3.798 0.056-5.694-0.083-1.269-0.083-2.541 0-3.813-0.09-1.899 0.017-3.799-0.004-5.702-0.122-1.669 0.083-3.341-0.036-5.011-0.03-0.35 0.02-0.68 0.09-1z" fill="#076839"/>
<metadata><rdf:RDF><cc:Work><dc:format>image/svg+xml</dc:format><dc:type rdf:resource="http://purl.org/dc/dcmitype/StillImage"/><cc:license rdf:resource="http://creativecommons.org/licenses/publicdomain/"/><dc:publisher><cc:Agent rdf:about="http://openclipart.org/"><dc:title>Openclipart</dc:title></cc:Agent></dc:publisher><dc:title>Eco Peace 001</dc:title><dc:date>2012-06-04T19:43:43</dc:date><dc:description>abstract, clip art, clipart, eco, ecology, free form, freeform, peace, peace sign, peace symbol, recycle, retro, shape, shapes, </dc:description><dc:source>http://openclipart.org/detail/170396/eco-peace-001-by-tikigiki-170396</dc:source><dc:creator><cc:Agent><dc:title>TikiGiki</dc:title></cc:Agent></dc:creator><dc:subject><rdf:Bag><rdf:li>abstract</rdf:li><rdf:li>clip art</rdf:li><rdf:li>clipart</rdf:li><rdf:li>eco</rdf:li><rdf:li>ecology</rdf:li><rdf:li>free form</rdf:li><rdf:li>freeform</rdf:li><rdf:li>peace</rdf:li><rdf:li>peace sign</rdf:li><rdf:li>peace symbol</rdf:li><rdf:li>recycle</rdf:li><rdf:li>retro</rdf:li><rdf:li>shape</rdf:li><rdf:li>shapes</rdf:li></rdf:Bag></dc:subject></cc:Work><cc:License rdf:about="http://creativecommons.org/licenses/publicdomain/"><cc:permits rdf:resource="http://creativecommons.org/ns#Reproduction"/><cc:permits rdf:resource="http://creativecommons.org/ns#Distribution"/><cc:permits rdf:resource="http://creativecommons.org/ns#DerivativeWorks"/></cc:License></rdf:RDF></metadata></svg>
